<svg xmlns="http://www.w3.org/2000/svg" viewBox="0 0 32 32">
  <defs>
    <linearGradient id="g" x1="0" y1="0" x2="1" y2="1">
      <stop offset="0%" stop-color="#818cf8"/>
      <stop offset="100%" stop-color="#a78bfa"/>
    </linearGradient>
  </defs>
  <!-- Ghost body -->
  <path d="M16 2C9.373 2 4 7.373 4 14v12c0 1 .8 1.6 1.5 1 .7-.6 1.3-.6 2 0s1.3.6 2 0 1.3-.6 2 0 1.3.6 2 0 1.3-.6 2 0 1.3.6 2 0 1.3-.6 2 0 1.3.6 2 0c.7-.6 1.5 0 1.5-1V14c0-6.627-5.373-12-12-12z" fill="url(#g)"/>
  <!-- Eyes -->
  <circle cx="11.5" cy="15" r="2.5" fill="#1e1b4b"/>
  <circle cx="20.5" cy="15" r="2.5" fill="#1e1b4b"/>
  <!-- Eye highlights -->
  <circle cx="12.5" cy="14" r="1" fill="white" opacity="0.8"/>
  <circle cx="21.5" cy="14" r="1" fill="white" opacity="0.8"/>
</svg>
